<?xml version="1.0" encoding="utf-8"?>
<!-- Generator: Adobe Illustrator 21.0.0, SVG Export Plug-In . SVG Version: 6.00 Build 0)  -->
<svg version="1.1" id="Layer_1" xmlns="http://www.w3.org/2000/svg" xmlns:xlink="http://www.w3.org/1999/xlink" x="0px" y="0px"
	 viewBox="0 0 383.5 378.9" style="enable-background:new 0 0 383.5 378.9;" xml:space="preserve">
<style type="text/css">
	.st0{fill:#F2F1F1;}
	.st1{fill:#EEEBEB;}
	.st2{fill:#EB1C24;}
</style>
<g>
	<circle class="st0" cx="191.8" cy="189.4" r="190.2"/>
	<path class="st0" d="M173.5,1.7c12.8,0,23.8-0.1,36.6-0.1c0,0.6,1.1-1.2,1.6-0.8c0,1,0.8,1.4,1.5,2c10.2,7.8,18,17.7,24,29
		c8.4,15.7,13.9,32.6,18.1,49.8c4.4,17.7,7.2,35.7,9,53.9c1.6,15.9,2.7,31.8,2.8,47.7c0.2,17.1-0.7,34.1-2.1,51.1
		c-0.9,11.2-2.2,22.4-4.1,33.5c-3.8,22.7-9.1,45-18.2,66.2c-6.3,14.6-14.6,27.9-26.6,38.6c-1.5,1.3-3.9,1.7-4.5,4.1
		c-0.8,0.2-1.6,0.7-2.5,0.7c-9.7,0.3-19.3,1-29.1,0.3c-12.9-1-25.6-2.9-38-6.1c-17-4.5-33.1-11.4-48-20.5
		c-19.2-11.6-35.9-26.2-50-43.7c-13.7-17-24.3-35.8-31.4-56.4c-5.7-16.4-9.4-33.3-9.8-50.7c0-1.1,0.1-2.3-1.5-2.5
		c0-5.9,0-11.8,0-17.8c1.6-0.2,1.5-1.4,1.5-2.5c-0.2-5.2,0.8-10.3,1.4-15.4c2.3-18.6,7.8-36.2,15.6-53.2
		C27.4,93,36.8,78.5,48.3,65.3c10-11.6,21.2-22,33.6-30.9c11-7.9,22.8-14.5,35.3-19.7c15.4-6.5,31.2-11.1,47.7-13.4
		C167.3,0.9,171.7,4.7,173.5,1.7z M191.9,119c-38.5-0.1-69.8,31.1-69.9,69.7c0,38.5,30.8,69.5,69.4,69.7c38.5,0.3,69.8-30.8,70-69.5
		C261.7,150.4,230.6,119.1,191.9,119z"/>
	<path class="st1" d="M211.7,376.7c0.6-2.4,3-2.7,4.5-4.1c12-10.7,20.3-23.9,26.6-38.6c9.1-21.2,14.5-43.5,18.2-66.2
		c1.8-11.1,3.1-22.3,4.1-33.5c1.4-17,2.3-34.1,2.1-51.1c-0.2-16-1.3-31.8-2.8-47.7c-1.8-18.2-4.7-36.2-9-53.9
		c-4.2-17.2-9.7-34.1-18.1-49.8c-6.1-11.3-13.8-21.2-24-29c-0.7-0.5-1.5-0.9-1.5-2c3.3,0.3,6.6,0.3,9.9,0.9
		c17.7,3.2,34.9,8.2,51.2,16c14.3,6.8,27.6,15.1,39.7,25.3c9.5,8,18.2,16.8,26.1,26.5c7.3,8.9,13.5,18.4,19.2,28.4
		c7.8,13.7,13.4,28.3,17.3,43.4c3.1,12,5.5,24.2,5.4,36.6c0,1.1,0.2,2,1.5,2.2c0,5.9,0,11.8,0,17.8c-1.8,0.3-1.4,1.7-1.5,2.9
		c0,2,0.2,4-0.1,5.9c-2.1,16.5-5.2,32.6-11.1,48.3c-8.5,22.7-20.9,43.1-37.1,61.1c-11.7,13-25.1,24.2-40,33.5
		c-14.8,9.2-30.5,16.4-47.3,21.2C234,373.5,223.1,376.3,211.7,376.7z"/>
	<path class="st2" d="M191.9,119c38.7,0.1,69.8,31.4,69.6,69.9c-0.2,38.7-31.5,69.8-70,69.5c-38.6-0.3-69.4-31.3-69.4-69.7
		C122.1,150.1,153.4,118.9,191.9,119z"/>
</g>
</svg>
