<?xml version="1.0" encoding="utf-8"?>
<!-- Generator: Adobe Illustrator 21.0.0, SVG Export Plug-In . SVG Version: 6.00 Build 0)  -->
<svg version="1.1" id="Layer_1" xmlns="http://www.w3.org/2000/svg" xmlns:xlink="http://www.w3.org/1999/xlink" x="0px" y="0px"
	 viewBox="0 0 383.5 378.9" style="enable-background:new 0 0 383.5 378.9;" xml:space="preserve">
<style type="text/css">
	.st0{fill:#F2F3F4;}
	.st1{fill:#E7E2E2;}
	.st2{fill:#E63828;}
	.st3{fill:#DB3027;}
	.st4{fill:#2A3A91;}
	.st5{fill:#E7E4E4;}
	.st6{fill:#E03427;}
	.st7{fill:#E6E3E3;}
	.st8{fill:#E63625;}
	.st9{fill:#E6E4E4;}
	.st10{fill:#E6E6E6;}
	.st11{fill:#F2F1F2;}
	.st12{clip-path:url(#SVGID_2_);}
</style>
<g>
	<path class="st0" d="M4.6,173.1c0.2,0,0.5,0,0.7,0c60.5,0,120.9,0,181.4,0c1,0,2,0.3,2.8-0.5c0.2-0.1,0.3-0.2,0.5-0.2
		c1.5,0.1,3,0.2,4.4,0.2c21.3,0,42.7,0,64,0c4.7,0,9.4-0.1,14-0.1l0,0.4c0,11.4,0,22.8,0.1,34.2c-1.6,0-3.2,0.1-4.8,0.1
		c-85.8,0-171.7,0-257.5,0c-1.6,0-3.2,0.1-4.8,0.2c-0.3-0.3-0.5-0.6-0.8-0.9C4.6,195.3,4.6,184.2,4.6,173.1z"/>
	<path class="st1" d="M383.5,206.4c-0.3,0.3-0.6,0.6-0.8,0.9c-16.5-0.1-33-0.2-49.6-0.2c-20.2,0-40.4,0.1-60.7,0.1l0.1-0.3
		c0-11.4,0-22.8-0.1-34.2c1.5-0.1,2.9-0.2,4.4-0.2c33.7,0,67.4,0,101.1,0c1.6,0,3.2-0.1,4.8-0.2c0.1,0.6,0.1,1.2,0.8,1.6
		C383.5,184.7,383.5,195.6,383.5,206.4z"/>
	<path class="st2" d="M180,378.9c-4.4-1.7-9.1-1.4-13.6-2.1c-28.2-4.2-54.1-14.3-77.8-30.1c-0.7-0.5-1.5-0.8-1.7-1.8
		c0.5,0,1,0.1,1.5,0.1c47.7,0,95.4,0,143.2,0c3.1,0,6.2,0.1,9.2,0.1c-0.9,3.1-3.1,5.5-4.9,8.1c-7.6,11-16.9,19.9-30.1,24
		c-0.9,0.3-2,0.4-2,1.7C195.8,378.9,187.9,378.9,180,378.9z"/>
	<path class="st3" d="M203.7,378.9c0-1.3,1.1-1.5,2-1.7c13.2-4,22.5-12.9,30.1-24c1.8-2.6,4-5,4.9-8.1c0.5-0.1,1-0.2,1.5-0.3
		c1.7,0.1,3.4,0.2,5.1,0.2c17.8,0.1,35.6,0.1,53.3,0.2c0,0.1,0,0.3,0,0.4c-7.5,6.1-16,10.4-24.6,14.6c-20.5,10-42.3,15.8-65,18
		c-0.8,0.1-1.8-0.3-2.2,0.8C207.1,378.9,205.4,378.9,203.7,378.9z"/>
	<path class="st4" d="M190,172.4c-0.2,0.1-0.3,0.1-0.5,0.2c-1.5-0.1-2.9-0.2-4.4-0.2c-58.3,0-116.6,0-174.9,0
		c-1.6,0-3.2-0.1-4.8-0.2c0.7-10.5,2.9-20.7,5.2-30.9c3.2-0.2,4.3,3.7,7.4,3.7c0,0.2,0.1,0.3,0.1,0.5c0.1,0,0.2-0.1,0.3-0.1
		c-0.1-0.1-0.3-0.3-0.4-0.4c-2.3-5.4-1.8-9.8,4.2-12.3c0.1-0.1,0.1-0.4,0.2-0.7c-2.9-0.6-5.9,0.3-8.7-0.6
		c5.2-15.3,11.6-30,20.6-43.5c3.1,1.1,3.9,3.1,2.5,6.2c-0.6,1.3-1.6,2.8-0.8,4.5c-0.1,0-0.2,0-0.3,0c0.1,0,0.2,0,0.2-0.1
		c4.3-4.3,8.6-5.4,13.1-0.3c0.1,0.1,0.4-0.1,1.1-0.2c-3.9-5.8-2.4-10.1,4.3-13.1c-7.2,1.6-10.9-1.3-11.7-8.2c-1.1,2.2-1.9,4-2.3,5.8
		c-0.6,2.4-1.9,2.9-4,1.8c8.8-13,19-24.7,30.5-35.2c0,1.2,0,3.1,1.8,1.2c3.9-4.1,7.5-3.4,11,0.3c0.2,0.2,0.7,0.2,1.3,0.4
		c-0.7-2.8-2.3-5.7-1.6-7.8c0.7-2.1,3.8-3.4,5.9-5.1c-1.2-1.2-2.9,0.3-3.7-1.2c5.6-3.9,11.2-7.8,17.1-11.2c1.5,1.1,2,2.4,1.3,4.3
		c-0.6,1.7-1.8,3.4-1.2,5.5c-0.1,0-0.3,0.1-0.4,0.2c0.1,0,0.2,0.1,0.2,0c0.1-0.1,0.1-0.2,0.2-0.3c4.1-3.4,8.2-5.7,12.6-0.4
		c0.1,0.1,0.4-0.1,1.6-0.3c-4.8-6-1.3-9.5,4-12.4c-2.3-0.3-4.1-0.2-5.9-0.3c-1.1,0-2.6,0.6-2.9-1.4c22.2-11.3,45.7-18.1,70.5-20
		c3.9-0.3,7.8-0.9,11.7-0.5c0,11.5,0.1,23,0.1,34.6c0,11.5,0,23,0,34.6c0,11.4,0,22.9,0,34.3c-0.1,0.2-0.1,0.5,0,0.7
		c-0.3,11.1-0.3,22.2,0,33.3c-0.1,0.2-0.1,0.4,0,0.7c0,1.3-0.1,2.7-0.1,4C190.2,152.3,190.1,162.3,190,172.4z M174.8,35.5
		c0.1,0.1,0.3,0.2,0.4,0.3c0-0.1,0-0.2,0-0.3C175.1,35.5,174.9,35.5,174.8,35.5c-1.5-5.1-2.3-10.1,4.2-12.7c0.1,0-0.1-0.4-0.1-1
		c-6.7,2.2-9.6-1.4-10.8-8c-1,6.8-4.1,10.2-11.6,8.5c7.3,3,7.2,7.6,4.5,13c0,0.1,0.2,0.3,0.5,0.8C165.7,30.1,170.2,31.2,174.8,35.5z
		 M111.9,129.5c0.1,0.2,0.3,0.3,0.4,0.5c0.4-0.3,0.2-0.6-0.1-0.8c-2.6-5.5-1.5-9.7,4.3-12.3c0.1,0,0-0.4-0.1-1c-6.7,2.1-10-1-11-8.1
		c-0.9,7.3-4.6,10-11.8,8.5c6.5,2.9,8.1,7.2,4.9,13.7C103.2,124,107.6,125.9,111.9,129.5z M35.6,129.4c4.5-3.4,8.9-5,13.3,0.2
		c0.1,0.1,0.4,0,1.2,0.1c-3.8-5.9-2.8-10.4,4-13.4c-3.2-0.5-6.5,0.5-8.3-0.7c-1.9-1.3-2.2-4.8-3.2-7.3c-1.1,6.7-4.8,9.5-12.1,7.9
		c6.6,2.9,7.8,7.2,5,12.8C35.6,129.2,35.7,129.4,35.6,129.4c0,0.1-0.2,0.1-0.2,0.1c0,0,0,0.1,0,0.2
		C35.5,129.7,35.5,129.5,35.6,129.4z M161.6,66.6c4.4-3.9,8.7-4.6,13,0.1c0,0,0.2,0,1-0.2c-4.4-6-1.5-9.9,4.9-12.9
		c-3.8-0.7-7.1,0.8-9-0.8c-1.8-1.5-2.1-4.7-3-7.2c-1,6.8-5,9.2-12.1,7.9c6.8,2.8,7.7,7.2,5.1,12.8c-0.4,0.2-0.6,0.5-0.1,0.8
		C161.3,67,161.4,66.8,161.6,66.6z M98.7,98.5c3.8-3.6,7.7-6,12.2-1c0.1,0.1,0.5,0,0.7,0c0,0,4.7-12.5,4.9-13
		c-6.8,2.1-10.3-0.9-11.2-8c-0.9,7.2-4.6,9.9-11.4,8.4c1.4,1.5,2.5,2.5,3.7,3.1c2.4,1.4,3.2,3,1.9,5.7
		C98.9,95.2,97.8,96.8,98.7,98.5c-0.1,0-0.3,0-0.4,0c0,0,0.1,0.1,0.1,0.1C98.5,98.5,98.6,98.5,98.7,98.5z M49.7,161
		c-0.5-1.6-0.8-3.3-1.5-4.8c-1.2-2.4-0.5-3.8,1.7-5.1c1.4-0.8,3.1-1.5,3.9-4.1c-7.5,2.7-10-1.4-11-8.4c-1.5,3.6-1.8,7-3.6,8.3
		c-1.8,1.3-5.1,0.6-7.7,0.8c6.2,3,7.1,7.5,3.9,13.9C40.4,155.4,44.9,156.8,49.7,161z M168.3,139.7c-1,6.8-4.9,9.3-12,7.9
		c5.6,3.2,8.9,6.7,4.3,12.6c2.2,0.8,3.2-0.5,4.2-1.4c2.2-1.9,4.1-2.5,6.2-0.1c0.4,0.4,1,0.8,1.5,1.1c0.6,0.4,1.2,1.1,1.9,0.4
		c0.3-0.3,0.3-1.3,0-1.7c-2.8-4.6-0.5-7.2,3.5-9.2c0.5-0.2,1.1-0.6,1-1.5c-2.5-0.9-5.9,0.9-7.7-0.9
		C169.6,145.2,169.3,142.2,168.3,139.7z M80.8,83.4c0.1-3.7-2.4-6.2-1.6-8.6c0.8-2.5,4.2-3.2,6-5.2c0.1-0.1-0.1-0.4-0.2-1
		c-6.9,2.3-10-1.3-11.1-8.2c-0.5,7.5-4.4,10-11.4,8.6c2.4,2.3,5.6,3.6,6.2,5.7c0.7,2.2-1.1,5.2-1.7,7.9
		C71.5,77.2,76.1,77.7,80.8,83.4z M148.4,69.2c-7.5,1.8-10.3-1.8-11.3-7.8c0-0.1-0.3-0.2-0.5-0.3c-1,2.5-1.2,6-3,7.3
		c-1.9,1.4-5.2,0.7-8.5,0.9c2.6,2.1,5.5,3.4,6.4,5.5c1,2.2-1.7,5-1.6,9.2c4.7-6.9,9.2-5.9,14.2-0.9
		C140.4,76.7,141.7,72.3,148.4,69.2z M105.2,139.4c-0.6,7.5-4.7,9.5-11.5,8.3c5.6,3.2,8.7,6.8,4.1,12.5c1.8,0.8,2.8-0.2,3.6-1
		c2.5-2.5,4.9-2.7,7.5-0.1c0.6,0.7,1.6,1.8,2.5,1.2c1.2-0.8,0.4-2.1-0.1-2.9c-1.8-3.3-0.6-5.4,2.4-7.1c1.1-0.6,2.3-1.2,3-3.2
		C109.7,149.2,106.3,146.4,105.2,139.4z M62.2,132c6.7,3.2,8.1,7.6,4.3,14c5-5.5,9.6-5.6,14.3-0.3c-0.6-3.2-2.4-6.1-1.7-8.2
		c0.8-2.2,4-3.6,6.1-5.3c-7.1,1.4-10.5-1.9-11.5-9C73,130.5,69.7,133.5,62.2,132z M130,145.4c2.3-1.4,4.5-4,6.8-4
		c2.2,0,4.4,2.6,7.2,4.4c-0.9-3.2-2.7-6.1-2-8.2c0.7-2.1,3.9-3.5,5.9-5.2c0.1-0.1,0-0.4-0.1-1c-6.9,2.2-10.1-1.3-11.1-8.2
		c-0.7,7.3-4.4,10-11.7,8.7C131.7,135.1,133.1,139.4,130,145.4z M105.3,45.2c-0.7,7.6-5,9.3-11.5,8.1c2.2,2.1,5,3.4,6.1,5.5
		c1.3,2.4-1.7,5-1.4,8.9c4.3-5.5,8.7-6.1,13.1-0.6c0-0.9,4.7-13.6,5.2-14.2C110.1,54.7,106.2,52.6,105.3,45.2z M168.6,107.1
		c-2,3.7-1.6,7.4-3.8,8.6c-2.1,1.1-5.2,0.2-7.8,0.2c-0.3,0.3-0.5,0.5-0.8,0.8c6.5,2.6,8.6,6.7,4.7,13c2.8-1.5,4.8-3.7,7.1-4.1
		c2.5-0.4,4.1,3,6.9,3.7c0.5-3-2.6-5.5-1.2-7.9c1.3-2.1,3.9-3.3,6-4.9C172.5,117.9,169.1,115,168.6,107.1z M124.9,37.8
		c6.7,3,8.1,7.4,4.7,13.8c4.9-6,9.4-4.9,14.4-0.2c-4.2-6.6-1.7-10.5,4.4-13.6c-7.6,1.7-10.8-1.6-11.7-8.6
		C135.8,36.2,132.5,39.4,124.9,37.8z M73.7,92.4c-0.6,1.6-1.3,3.2-1.6,4.9c-0.5,2.6-1.9,3.6-4.6,3.3c-1.5-0.2-3.3-0.5-5.7,0.7
		c7.7,2.3,7.9,7,5,13.2c4.8-5.6,9.3-5.3,14.4-0.2c-4-6.5-1.9-10.5,4.4-13.7C77.6,102.6,74.9,98.6,73.7,92.4z M147.9,101.1
		c-7.1,1.4-10.2-2.2-11.2-9.1c-0.7,7.2-4.3,10.1-12.1,8.1c2.9,3,6.5,3.7,7,6.2c0.5,2.3-1.2,5-2.1,8.2c2.8-1.9,5.1-4.5,7.3-4.5
		c2.2,0,4.4,2.6,7.1,4.5c-0.9-3.3-2.6-6.2-1.9-8.3C142.7,104,145.8,102.7,147.9,101.1z M179.7,85c-7.5,1.9-10.4-1.9-11.6-8.4
		c-0.8,7.1-4.3,9.9-11.4,8.6c6.2,2.9,8,6.8,4.1,12.4c0.6,0,14,0.2,14.8,0.2C171.5,92,173.6,88.1,179.7,85z"/>
	<path class="st3" d="M382.7,172.3c-1.6,0.1-3.2,0.2-4.8,0.2c-33.7,0-67.4,0-101.1,0c-1.5,0-2.9,0.1-4.4,0.2c0,0,0-0.4,0-0.4
		c-0.7-11.3-1.5-22.7-2.2-34c1.6,0,3.2-0.1,4.8-0.1c33.7,0,67.4-0.1,101.1-0.1c3.2,9,4.5,18.5,5.9,27.9
		C382.3,168.1,382.5,170.2,382.7,172.3z"/>
	<path class="st5" d="M376.1,138.2c-33.7,0-67.4,0.1-101.1,0.1c-1.6,0-3.2,0.1-4.8,0.1c-0.3-0.1-0.5-0.2-0.8-0.3
		c0.1-5.9-1.2-11.6-1.8-17.4c-0.7-5.7-1.7-11.3-2.6-16.9c1.5-0.1,2.9-0.2,4.4-0.2c31.1,0,62.1-0.1,93.2-0.1
		C368.4,114.6,373.3,126,376.1,138.2z"/>
	<path class="st3" d="M362.7,103.5c-31.1,0-62.1,0.1-93.2,0.1c-1.5,0-2.9,0.1-4.4,0.2c-0.2-0.1-0.5-0.2-0.7-0.3
		c0-1.2,0.1-2.5-0.2-3.7c-1.9-7.1-3.1-14.4-5.3-21.4c-0.9-2.9-2.3-5.7-1.9-8.9c1.3-0.1,2.7-0.1,4-0.2c24.8,0,49.7,0,74.5,0
		c1.5,0,2.9-0.2,4.4-0.3c7.4,7.9,13.1,17.1,18.6,26.4C360,98,361.3,100.8,362.7,103.5z"/>
	<path class="st6" d="M190.4,34.7c0-11.5-0.1-23-0.1-34.6c40.9-0.8,78.1,10.6,111.9,33.7c0.3,0.2,0.4,0.5,0.7,0.8
		c-20.2,0.1-40.4,0.1-60.6,0.2C224.9,34.8,207.6,34.8,190.4,34.7z"/>
	<path class="st7" d="M242.1,34.8c20.2-0.1,40.4-0.1,60.6-0.2c4.3,2.1,7.9,5.3,11.5,8.3c9,7.7,17.6,15.9,25.2,25.1
		c0.2,0.3,0.3,0.7,0.5,1c-1.5,0.1-2.9,0.3-4.4,0.3c-24.8,0-49.7,0-74.5,0c-1.3,0-2.7,0.1-4,0.2c-0.3-0.2-0.5-0.3-0.8-0.5
		c-1.2-3.6-2.6-7.1-3.7-10.7C249.9,50.1,245.4,42.7,242.1,34.8z"/>
	<path class="st1" d="M5.4,172.3c1.6,0.1,3.2,0.2,4.8,0.2c58.3,0,116.6,0,174.9,0c1.5,0,2.9,0.1,4.4,0.2c-0.8,0.8-1.9,0.5-2.8,0.5
		c-60.5,0-120.9,0-181.4,0C5.3,172.8,5.3,172.6,5.4,172.3z"/>
	<path class="st8" d="M12.7,241.8c-2.1-2.5-2.1-5.7-2.9-8.5c-2.2-8.5-3.4-17.2-4.4-26c1.6-0.1,3.2-0.2,4.8-0.2
		c85.8,0,171.7,0,257.5,0c1.6,0,3.2-0.1,4.8-0.1c0,0-0.1,0.3-0.1,0.3c-0.2,1-0.7,1.9-0.6,2.8c0.5,10.4-1.7,20.8-1.5,31.2
		c-0.3,0.2-0.5,0.4-0.8,0.6c-4.1-0.1-8.1-0.3-12.2-0.3c-80.1,0-160.2,0-240.3,0C15.6,241.5,14.1,241.7,12.7,241.8z"/>
	<path class="st8" d="M269.5,138.1c0.3,0.1,0.5,0.2,0.8,0.3c0.7,11.3,1.5,22.7,2.2,34c-4.7,0.1-9.4,0.1-14,0.1c-21.3,0-42.7,0-64,0
		c-1.5,0-3-0.1-4.4-0.2c0.1-10,0.1-20.1,0.2-30.1c0-1.3,0.1-2.7,0.1-4c0.3,0,0.5,0,0.7-0.2C217.2,138.1,243.4,138.1,269.5,138.1z"/>
	<path class="st3" d="M270.3,241.3c-0.2-10.4,2.1-20.7,1.5-31.2c0-0.9,0.4-1.9,0.6-2.8c20.2,0,40.4-0.1,60.7-0.1
		c16.5,0,33,0.1,49.6,0.2c-1.3,11.5-3.2,22.9-6.5,34.1c-32.3,0-64.7,0.1-97,0.1C276.2,241.5,273.2,241.4,270.3,241.3z"/>
	<path class="st9" d="M270.3,241.3c2.9,0.1,5.9,0.2,8.8,0.2c32.3,0,64.7,0,97-0.1c-3,10.9-7,21.4-12.2,31.5
		c-0.6,1.1-1.3,2.1-1.9,3.1c-0.3,0.1-0.5,0.1-0.8,0.2c-15.9,0-31.7-0.1-47.6-0.1c-16.2,0-32.4-0.1-48.7-0.1c-0.2-3,0.6-5.8,1.1-8.7
		c1.6-8.4,2.9-16.8,3.3-25.3C269.8,241.7,270,241.5,270.3,241.3z"/>
	<path class="st3" d="M265.1,275.9c16.2,0,32.4,0.1,48.7,0.1c15.9,0,31.7,0.1,47.6,0.1c0,0.5,0.1,1,0.1,1.5
		c-5.9,12-13.3,23.1-22.3,33.1c-1.6-0.1-3.2-0.2-4.8-0.2c-26-0.1-52.1-0.1-78.1-0.1c0.5-2,0.9-4,1.5-6c2.7-9.3,5.3-18.7,6.6-28.3
		C264.6,276.1,264.8,276,265.1,275.9z"/>
	<path class="st10" d="M256.2,310.4c26,0,52.1,0.1,78.1,0.1c1.6,0,3.2,0.1,4.8,0.2c-10.1,12.5-21.9,23.2-34.9,32.6
		c-0.9,0.6-1.6,1.6-2.9,1.5c-0.2,0-0.5,0.1-0.7,0.3c-17.8-0.1-35.6-0.1-53.3-0.2c-1.7,0-3.4-0.1-5.1-0.2c0.1-3.1,2.1-5.4,3.4-8
		c4.1-8.4,7.8-16.8,10-25.9C255.7,310.7,256,310.6,256.2,310.4z"/>
	<path class="st2" d="M361.4,277.7c0-0.5-0.1-1-0.1-1.5c0.3-0.1,0.5-0.1,0.8-0.2C362.2,276.7,362,277.3,361.4,277.7z"/>
	<path class="st2" d="M300.6,345.1c0.2-0.1,0.4-0.2,0.7-0.3c0,0.5-0.3,0.7-0.7,0.7C300.6,345.4,300.6,345.3,300.6,345.1z"/>
	<path class="st11" d="M265.1,275.9c-0.2,0.1-0.5,0.2-0.7,0.2c-2.7,0-5.4-0.1-8.1-0.1c-76.7,0-153.5,0-230.2,0
		c-4.1-6.3-6.8-13.2-9.3-20.2c-1.6-4.6-4.1-8.9-4.1-14c1.5-0.1,2.9-0.3,4.4-0.3c80.1,0,160.2,0,240.3,0c4.1,0,8.1,0.2,12.2,0.3
		c-0.5,8.5-1.7,16.9-3.3,25.3C265.7,270.1,264.9,272.9,265.1,275.9z"/>
	<path class="st2" d="M26.1,276c76.7,0,153.5,0,230.2,0c2.7,0,5.4,0.1,8.1,0.1c-1.3,9.6-3.9,19-6.6,28.3c-0.6,2-1,4-1.5,6
		c-0.3,0.1-0.5,0.3-0.8,0.4c-3.9-0.1-7.9-0.2-11.8-0.2c-63.2,0-126.4,0-189.5,0c-1.5,0-2.9,0.1-4.4,0.2c-1-0.2-1.7-0.8-2.4-1.6
		c-8.1-9.9-15.1-20.5-21-31.8C26.1,277,26.1,276.5,26.1,276z"/>
	<path class="st0" d="M49.7,310.8c1.5-0.1,2.9-0.2,4.4-0.2c63.2,0,126.4,0,189.5,0c3.9,0,7.9,0.2,11.8,0.2
		c-2.1,9.1-5.9,17.5-10,25.9c-1.3,2.6-3.2,5-3.4,8c-0.5,0.1-1,0.2-1.5,0.3c-3.1,0-6.2-0.1-9.2-0.1c-47.7,0-95.4,0-143.2,0
		c-0.5,0-1,0-1.5-0.1c-5.5-2.5-9.8-6.7-14.5-10.4c-7-5.4-12.8-12.1-19.1-18.3C51.7,314.7,50.3,313,49.7,310.8z"/>
	<path class="st0" d="M269.5,138.1c-26.2,0-52.3,0-78.5,0c-0.2-0.2-0.4-0.3-0.7-0.5c-0.3-11.1-0.3-22.2,0-33.3
		c0.2-0.2,0.5-0.4,0.7-0.5c6.8,0,13.5-0.1,20.3-0.1c17.7-0.1,35.4-0.1,53-0.1c0.2,0.1,0.5,0.2,0.7,0.3c0.9,5.6,1.9,11.2,2.6,16.9
		C268.4,126.5,269.6,132.2,269.5,138.1z"/>
	<path class="st8" d="M264.4,103.5c-17.7,0-35.4,0.1-53,0.1c-6.8,0-13.5,0.1-20.3,0.1c-0.2-0.1-0.5-0.2-0.7-0.2
		c0-11.4,0-22.9,0-34.3c13.6,0,27.1,0.1,40.7,0c8.4,0,16.7-0.2,25.1-0.3c0.3,0.2,0.5,0.3,0.8,0.5c-0.4,3.2,1,6,1.9,8.9
		c2.2,7,3.4,14.3,5.3,21.4C264.5,101,264.3,102.3,264.4,103.5z"/>
	<path class="st0" d="M256.2,69c-8.4,0.1-16.7,0.3-25.1,0.3c-13.6,0-27.1,0-40.7,0c0-11.5,0-23,0-34.6c17.3,0,34.5,0.1,51.8,0.1
		c3.3,7.9,7.8,15.2,10.3,23.4C253.6,61.9,254.9,65.4,256.2,69z"/>
	<path class="st5" d="M190.4,103.6c0.3,0,0.5,0,0.7,0.2c-0.2,0.2-0.5,0.4-0.7,0.5C190.3,104.1,190.2,103.8,190.4,103.6z"/>
	<path class="st5" d="M190.4,137.6c0.2,0.2,0.4,0.3,0.7,0.5c-0.2,0.1-0.5,0.2-0.7,0.2C190.3,138,190.3,137.8,190.4,137.6z"/>
	<path class="st4" d="M10.4,141.8c0,0,14.1-82.4,103.9-124.3l63.8-8.4l7,7v149.7l-125,2.7l-40.3-2.3L10.4,141.8z"/>
	<g>
		<defs>
			<path id="SVGID_1_" d="M10.4,141.8c0,0,14.1-82.4,103.9-124.3l63.8-8.4l7,7v149.7l-125,2.7l-40.3-2.3L10.4,141.8z"/>
		</defs>
		<clipPath id="SVGID_2_">
			<use xlink:href="#SVGID_1_"  style="overflow:visible;"/>
		</clipPath>
		<g class="st12">
			<polygon class="st0" points="167.5,139.3 170,146.8 178.6,147.3 172,152.7 174.3,160.4 167.2,155.6 160.6,160.4 162.7,152.3 
				156.3,147.3 164.8,146.9 			"/>
			<polygon class="st0" points="104.5,138.7 107,146.2 115.6,146.8 109,152.1 111.3,159.8 104.2,155.1 97.6,159.8 99.7,151.8 
				93.3,146.8 101.8,146.3 			"/>
			<polygon class="st0" points="136,123.3 138.5,130.9 147.1,131.4 140.5,136.8 142.8,144.5 135.7,139.7 129.1,144.5 131.2,136.4 
				124.8,131.4 133.3,130.9 			"/>
			<polygon class="st0" points="167.5,107.9 170,115.4 178.6,116 172,121.4 174.3,129 167.2,124.3 160.6,129 162.7,121 156.3,116 
				164.8,115.5 			"/>
			<polygon class="st0" points="167.5,76.5 170,84.1 178.6,84.6 172,90 174.3,97.7 167.2,92.9 160.6,97.7 162.7,89.6 156.3,84.6 
				164.8,84.2 			"/>
			<polygon class="st0" points="167.5,44.7 170,52.2 178.6,52.7 172,58.1 174.3,65.8 167.2,61 160.6,65.8 162.7,57.8 156.3,52.7 
				164.8,52.3 			"/>
			<polygon class="st0" points="167.5,13.3 170,20.8 178.6,21.4 172,26.8 174.3,34.4 167.2,29.7 160.6,34.4 162.7,26.4 156.3,21.4 
				164.8,20.9 			"/>
			<polygon class="st0" points="136,29.3 138.5,36.8 147.1,37.4 140.5,42.8 142.8,50.4 135.7,45.7 129.1,50.4 131.2,42.4 
				124.8,37.4 133.3,36.9 			"/>
			<polygon class="st0" points="104.6,44.7 107.2,52.2 115.7,52.7 109.2,58.1 111.5,65.8 104.3,61 97.7,65.8 99.8,57.8 93.5,52.7 
				101.9,52.3 			"/>
			<polygon class="st0" points="136,60.9 138.5,68.5 147.1,69 140.5,74.4 142.8,82.1 135.7,77.3 129.1,82.1 131.2,74 124.8,69 
				133.3,68.5 			"/>
			<polygon class="st0" points="136,92.1 138.5,99.7 147.1,100.2 140.5,105.6 142.8,113.3 135.7,108.5 129.1,113.3 131.2,105.2 
				124.8,100.2 133.3,99.7 			"/>
			<polygon class="st0" points="104.6,76.5 107.2,84.1 115.7,84.6 109.2,90 111.5,97.7 104.3,92.9 97.7,97.7 99.8,89.6 93.5,84.6 
				101.9,84.2 			"/>
			<polygon class="st0" points="104.5,107.6 107,115.2 115.6,115.7 109,121.1 111.3,128.8 104.2,124 97.6,128.8 99.7,120.7 
				93.3,115.7 101.8,115.2 			"/>
			<polygon class="st0" points="73.1,123.3 75.7,130.9 84.2,131.4 77.7,136.8 80,144.5 72.8,139.7 66.2,144.5 68.3,136.4 62,131.4 
				70.4,130.9 			"/>
			<polygon class="st0" points="73.1,92.1 75.7,99.7 84.2,100.2 77.7,105.6 80,113.3 72.8,108.5 66.2,113.3 68.3,105.2 62,100.2 
				70.4,99.7 			"/>
			<polygon class="st0" points="73.1,60.9 75.7,68.5 84.2,69 77.7,74.4 80,82.1 72.8,77.3 66.2,82.1 68.3,74 62,69 70.4,68.5 			"/>
			<polygon class="st0" points="41.8,76.5 44.4,84.1 53,84.6 46.4,90 48.7,97.7 41.6,92.9 35,97.7 37.1,89.6 30.7,84.6 39.2,84.2 
							"/>
			<polygon class="st0" points="73.1,29.7 75.7,37.3 84.2,37.8 77.7,43.2 80,50.9 72.8,46.1 66.2,50.9 68.3,42.8 62,37.8 70.4,37.3 
							"/>
			<polygon class="st0" points="105.1,13.3 107.7,20.8 116.2,21.4 109.7,26.8 112,34.4 104.8,29.7 98.2,34.4 100.3,26.4 94,21.4 
				102.4,20.9 			"/>
			<polygon class="st0" points="41.8,107.9 44.4,115.4 53,116 46.4,121.4 48.7,129 41.6,124.3 35,129 37.1,121 30.7,116 39.2,115.5 
							"/>
			<polygon class="st0" points="41.8,139.3 44.4,146.8 53,147.3 46.4,152.7 48.7,160.4 41.6,155.6 35,160.4 37.1,152.3 30.7,147.3 
				39.2,146.9 			"/>
			<polygon class="st0" points="11.1,123.6 13.7,131.2 22.2,131.7 15.7,137.1 18,144.8 10.9,140 4.2,144.8 6.4,136.7 0,131.7 
				8.5,131.3 			"/>
		</g>
	</g>
</g>
</svg>
