<svg width="15" height="8" viewBox="0 0 15 8" fill="none" xmlns="http://www.w3.org/2000/svg">
<path d="M0.475569 1.42498C0.475569 1.26665 0.532633 1.10831 0.654916 0.983312C0.891328 0.741646 1.28263 0.741646 1.51905 0.983312L6.83425 6.41665C7.22556 6.81665 7.86142 6.81665 8.25273 6.41665L13.5679 0.983313C13.8043 0.741646 14.1957 0.741646 14.4321 0.983313C14.6685 1.22498 14.6685 1.62498 14.4321 1.86665L9.11686 7.29998C8.7011 7.72498 8.1386 7.96665 7.54349 7.96665C6.94838 7.96665 6.38588 7.73331 5.97012 7.29998L0.654916 1.86665C0.540786 1.74165 0.475569 1.58331 0.475569 1.42498Z" fill="#E6F3FA"/>
</svg>
