<svg width="32" height="42" viewBox="0 0 32 42" fill="none" xmlns="http://www.w3.org/2000/svg">
<path d="M0 11.4586C0 9.63534 1.17747 8.02074 2.91351 7.46349L25.5312 0.203495C28.1744 -0.644935 30.8981 1.26121 31.0063 4.03511L31.9968 29.4345C32.0704 31.3231 30.8723 33.0278 29.0704 33.5982L5.46224 41.0718C2.75732 41.9281 0 39.9088 0 37.0716V11.4586Z" fill="#8096A3"/>
<path d="M17.294 8.1941C17.5999 8.10225 18.5748 7.81142 19.4606 7.54772L21.0711 7.06836L21.0927 15.9929C21.1074 22.0325 21.0877 25.1234 21.032 25.5545C20.7467 27.7596 19.9832 29.3059 18.4306 30.8234C16.8072 32.4099 15.6632 32.9641 11.5793 34.1426L11.2139 34.2481L11.2342 31.9786L11.2545 29.7091L12.382 29.3366C14.6172 28.5982 15.6205 27.8748 16.3118 26.5031C16.7411 25.6513 16.7352 25.786 16.7367 16.7161L16.738 8.36104L17.294 8.1941Z" fill="white"/>
</svg>
